<svg width="161" height="128" viewBox="0 0 161 128" fill="none" xmlns="http://www.w3.org/2000/svg">
<path d="M106.68 64.974L106.694 66.052C106.657 66.7333 106.573 67.3073 106.442 67.774C106.311 68.2407 106.055 68.6653 105.672 69.048C105.037 69.6827 104.113 70 102.9 70C101.472 70 100.492 69.8133 99.96 69.44C99.428 69.0573 99.162 68.3713 99.162 67.382V60.032H103.04C104.16 60.032 105.037 60.3493 105.672 60.984C106.185 61.4973 106.489 62.1227 106.582 62.86C106.647 63.3827 106.68 64.0873 106.68 64.974ZM104.314 67.648C104.491 67.4333 104.603 67.1393 104.65 66.766C104.706 66.3833 104.734 65.7907 104.734 64.988C104.734 64.1853 104.706 63.6067 104.65 63.252C104.603 62.888 104.491 62.5987 104.314 62.384C103.978 61.9733 103.493 61.768 102.858 61.768H101.108V67.284C101.108 67.6573 101.234 67.914 101.486 68.054C101.738 68.194 102.186 68.264 102.83 68.264C103.483 68.264 103.978 68.0587 104.314 67.648ZM110.337 70H108.391V60.032H110.337V70ZM119.586 60.032L116.45 69.44C116.282 69.8693 115.983 70.084 115.554 70.084C115.106 70.084 114.798 69.8693 114.63 69.44L111.536 60.032H113.552L115.554 66.528L117.556 60.032H119.586ZM127.357 70H123.829C122.709 70 121.92 69.8087 121.463 69.426C121.015 69.034 120.791 68.348 120.791 67.368V60.032H127.357V61.768H122.737V64.106H125.971L125.831 65.842H122.737V67.228C122.737 67.62 122.826 67.8907 123.003 68.04C123.18 68.1893 123.502 68.264 123.969 68.264H127.357V70ZM138.667 70H135.699C134.579 70 133.767 69.7853 133.263 69.356C132.769 68.9173 132.521 68.208 132.521 67.228V60.032H134.467V67.228C134.467 67.62 134.556 67.8907 134.733 68.04C134.911 68.1893 135.233 68.264 135.699 68.264H138.667V70ZM142.165 70H140.219V60.032H142.165V70ZM151.05 61.768H147.536C147.126 61.768 146.836 61.8473 146.668 62.006C146.51 62.1647 146.43 62.44 146.43 62.832V64.218H150.084L149.944 65.954H146.43V70H144.484V62.062C144.484 61.3247 144.643 60.802 144.96 60.494C145.287 60.186 145.842 60.032 146.626 60.032H151.05V61.768ZM159.308 70H155.78C154.66 70 153.871 69.8087 153.414 69.426C152.966 69.034 152.742 68.348 152.742 67.368V60.032H159.308V61.768H154.688V64.106H157.922L157.782 65.842H154.688V67.228C154.688 67.62 154.777 67.8907 154.954 68.04C155.131 68.1893 155.453 68.264 155.92 68.264H159.308V70Z" fill="white"/>
<path d="M40.42 51.61C40.6519 51.61 40.84 51.422 40.84 51.19C40.84 50.9581 40.6519 50.77 40.42 50.77C40.188 50.77 40 50.9581 40 51.19C40 51.422 40.188 51.61 40.42 51.61Z" fill="white"/>
<path d="M49.72 51.5402C49.952 51.5402 50.14 51.3522 50.14 51.1202C50.14 50.8882 49.952 50.7002 49.72 50.7002C49.4881 50.7002 49.3 50.8882 49.3 51.1202C49.3 51.3522 49.4881 51.5402 49.72 51.5402Z" fill="white"/>
<path d="M45.0701 54.2802C45.3021 54.2802 45.4901 54.0921 45.4901 53.8602C45.4901 53.6282 45.3021 53.4402 45.0701 53.4402C44.8382 53.4402 44.6501 53.6282 44.6501 53.8602C44.6501 54.0921 44.8382 54.2802 45.0701 54.2802Z" fill="white"/>
<path d="M40.42 57.0302C40.6519 57.0302 40.84 56.8421 40.84 56.6102C40.84 56.3782 40.6519 56.1902 40.42 56.1902C40.188 56.1902 40 56.3782 40 56.6102C40 56.8421 40.188 57.0302 40.42 57.0302Z" fill="white"/>
<path d="M63.67 49.1602C64.1505 49.1602 64.54 48.7706 64.54 48.2902C64.54 47.8097 64.1505 47.4202 63.67 47.4202C63.1896 47.4202 62.8 47.8097 62.8 48.2902C62.8 48.7706 63.1896 49.1602 63.67 49.1602Z" fill="white"/>
<path d="M59.0201 51.9102C59.5006 51.9102 59.8901 51.5206 59.8901 51.0402C59.8901 50.5597 59.5006 50.1702 59.0201 50.1702C58.5397 50.1702 58.1501 50.5597 58.1501 51.0402C58.1501 51.5206 58.5397 51.9102 59.0201 51.9102Z" fill="white"/>
<path d="M54.37 54.6602C54.8505 54.6602 55.24 54.2706 55.24 53.7902C55.24 53.3097 54.8505 52.9202 54.37 52.9202C53.8895 52.9202 53.5 53.3097 53.5 53.7902C53.5 54.2706 53.8895 54.6602 54.37 54.6602Z" fill="white"/>
<path d="M49.7201 57.4102C50.2006 57.4102 50.5901 57.0206 50.5901 56.5402C50.5901 56.0597 50.2006 55.6702 49.7201 55.6702C49.2396 55.6702 48.8501 56.0597 48.8501 56.5402C48.8501 57.0206 49.2396 57.4102 49.7201 57.4102Z" fill="white"/>
<path d="M45.0702 60.1502C45.5507 60.1502 45.9402 59.7606 45.9402 59.2802C45.9402 58.7997 45.5507 58.4102 45.0702 58.4102C44.5897 58.4102 44.2002 58.7997 44.2002 59.2802C44.2002 59.7606 44.5897 60.1502 45.0702 60.1502Z" fill="white"/>
<path d="M40.42 62.4501C40.6519 62.4501 40.84 62.2621 40.84 62.0301C40.84 61.7981 40.6519 61.6101 40.42 61.6101C40.188 61.6101 40 61.7981 40 62.0301C40 62.2621 40.188 62.4501 40.42 62.4501Z" fill="white"/>
<path d="M63.6702 55.4502C64.6311 55.4502 65.4102 54.6712 65.4102 53.7102C65.4102 52.7492 64.6311 51.9702 63.6702 51.9702C62.7092 51.9702 61.9302 52.7492 61.9302 53.7102C61.9302 54.6712 62.7092 55.4502 63.6702 55.4502Z" fill="white"/>
<path d="M59.0203 58.2002C59.9812 58.2002 60.7603 57.4212 60.7603 56.4602C60.7603 55.4992 59.9812 54.7202 59.0203 54.7202C58.0593 54.7202 57.2803 55.4992 57.2803 56.4602C57.2803 57.4212 58.0593 58.2002 59.0203 58.2002Z" fill="white"/>
<path d="M54.3701 60.9502C55.3311 60.9502 56.1101 60.1712 56.1101 59.2102C56.1101 58.2492 55.3311 57.4702 54.3701 57.4702C53.4092 57.4702 52.6301 58.2492 52.6301 59.2102C52.6301 60.1712 53.4092 60.9502 54.3701 60.9502Z" fill="white"/>
<path d="M49.72 63.6902C50.6809 63.6902 51.46 62.9112 51.46 61.9502C51.46 60.9892 50.6809 60.2102 49.72 60.2102C48.759 60.2102 47.98 60.9892 47.98 61.9502C47.98 62.9112 48.759 63.6902 49.72 63.6902Z" fill="white"/>
<path d="M45.0702 65.5701C45.5507 65.5701 45.9402 65.1806 45.9402 64.7001C45.9402 64.2196 45.5507 63.8301 45.0702 63.8301C44.5897 63.8301 44.2002 64.2196 44.2002 64.7001C44.2002 65.1806 44.5897 65.5701 45.0702 65.5701Z" fill="white"/>
<path d="M40.42 67.87C40.6519 67.87 40.84 67.682 40.84 67.45C40.84 67.2181 40.6519 67.03 40.42 67.03C40.188 67.03 40 67.2181 40 67.45C40 67.682 40.188 67.87 40.42 67.87Z" fill="white"/>
<path d="M63.6702 60.8701C64.6311 60.8701 65.4102 60.0911 65.4102 59.1301C65.4102 58.1692 64.6311 57.3901 63.6702 57.3901C62.7092 57.3901 61.9302 58.1692 61.9302 59.1301C61.9302 60.0911 62.7092 60.8701 63.6702 60.8701Z" fill="white"/>
<path d="M59.0203 63.6201C59.9812 63.6201 60.7603 62.8411 60.7603 61.8801C60.7603 60.9192 59.9812 60.1401 59.0203 60.1401C58.0593 60.1401 57.2803 60.9192 57.2803 61.8801C57.2803 62.8411 58.0593 63.6201 59.0203 63.6201Z" fill="white"/>
<path d="M54.3701 66.3601C55.3311 66.3601 56.1101 65.5811 56.1101 64.6201C56.1101 63.6592 55.3311 62.8801 54.3701 62.8801C53.4092 62.8801 52.6301 63.6592 52.6301 64.6201C52.6301 65.5811 53.4092 66.3601 54.3701 66.3601Z" fill="white"/>
<path d="M49.72 69.1101C50.6809 69.1101 51.46 68.3311 51.46 67.3701C51.46 66.4092 50.6809 65.6301 49.72 65.6301C48.759 65.6301 47.98 66.4092 47.98 67.3701C47.98 68.3311 48.759 69.1101 49.72 69.1101Z" fill="white"/>
<path d="M45.0702 70.99C45.5507 70.99 45.9402 70.6005 45.9402 70.12C45.9402 69.6395 45.5507 69.25 45.0702 69.25C44.5897 69.25 44.2002 69.6395 44.2002 70.12C44.2002 70.6005 44.5897 70.99 45.0702 70.99Z" fill="white"/>
<path d="M40.42 73.2902C40.6519 73.2902 40.84 73.1022 40.84 72.8702C40.84 72.6382 40.6519 72.4502 40.42 72.4502C40.188 72.4502 40 72.6382 40 72.8702C40 73.1022 40.188 73.2902 40.42 73.2902Z" fill="white"/>
<path d="M63.67 65.4202C64.1505 65.4202 64.54 65.0307 64.54 64.5502C64.54 64.0697 64.1505 63.6802 63.67 63.6802C63.1896 63.6802 62.8 64.0697 62.8 64.5502C62.8 65.0307 63.1896 65.4202 63.67 65.4202Z" fill="white"/>
<path d="M59.0201 68.1602C59.5006 68.1602 59.8901 67.7706 59.8901 67.2902C59.8901 66.8097 59.5006 66.4202 59.0201 66.4202C58.5397 66.4202 58.1501 66.8097 58.1501 67.2902C58.1501 67.7706 58.5397 68.1602 59.0201 68.1602Z" fill="white"/>
<path d="M54.37 70.9102C54.8505 70.9102 55.24 70.5206 55.24 70.0402C55.24 69.5597 54.8505 69.1702 54.37 69.1702C53.8895 69.1702 53.5 69.5597 53.5 70.0402C53.5 70.5206 53.8895 70.9102 54.37 70.9102Z" fill="white"/>
<path d="M49.7201 73.6602C50.2006 73.6602 50.5901 73.2706 50.5901 72.7902C50.5901 72.3097 50.2006 71.9202 49.7201 71.9202C49.2396 71.9202 48.8501 72.3097 48.8501 72.7902C48.8501 73.2706 49.2396 73.6602 49.7201 73.6602Z" fill="white"/>
<path d="M45.0701 75.9601C45.3021 75.9601 45.4901 75.7721 45.4901 75.5401C45.4901 75.3082 45.3021 75.1201 45.0701 75.1201C44.8382 75.1201 44.6501 75.3082 44.6501 75.5401C44.6501 75.7721 44.8382 75.9601 45.0701 75.9601Z" fill="white"/>
<path d="M40.42 78.7101C40.6519 78.7101 40.84 78.5221 40.84 78.2901C40.84 78.0582 40.6519 77.8701 40.42 77.8701C40.188 77.8701 40 78.0582 40 78.2901C40 78.5221 40.188 78.7101 40.42 78.7101Z" fill="white"/>
<path d="M63.67 70.38C63.9019 70.38 64.09 70.192 64.09 69.96C64.09 69.7281 63.9019 69.54 63.67 69.54C63.438 69.54 63.25 69.7281 63.25 69.96C63.25 70.192 63.438 70.38 63.67 70.38Z" fill="white"/>
<path d="M59.0201 73.13C59.2521 73.13 59.4401 72.942 59.4401 72.71C59.4401 72.4781 59.2521 72.29 59.0201 72.29C58.7882 72.29 58.6001 72.4781 58.6001 72.71C58.6001 72.942 58.7882 73.13 59.0201 73.13Z" fill="white"/>
<path d="M54.3702 75.88C54.6022 75.88 54.7902 75.692 54.7902 75.46C54.7902 75.2281 54.6022 75.04 54.3702 75.04C54.1382 75.04 53.9502 75.2281 53.9502 75.46C53.9502 75.692 54.1382 75.88 54.3702 75.88Z" fill="white"/>
<path d="M49.72 78.63C49.952 78.63 50.14 78.442 50.14 78.21C50.14 77.9781 49.952 77.79 49.72 77.79C49.4881 77.79 49.3 77.9781 49.3 78.21C49.3 78.442 49.4881 78.63 49.72 78.63Z" fill="white"/>
<path d="M45.0701 81.38C45.3021 81.38 45.4901 81.192 45.4901 80.96C45.4901 80.7281 45.3021 80.54 45.0701 80.54C44.8382 80.54 44.6501 80.7281 44.6501 80.96C44.6501 81.192 44.8382 81.38 45.0701 81.38Z" fill="white"/>
<path d="M63.67 75.8002C63.9019 75.8002 64.09 75.6122 64.09 75.3802C64.09 75.1482 63.9019 74.9602 63.67 74.9602C63.438 74.9602 63.25 75.1482 63.25 75.3802C63.25 75.6122 63.438 75.8002 63.67 75.8002Z" fill="white"/>
<path d="M59.0201 78.5502C59.2521 78.5502 59.4401 78.3622 59.4401 78.1302C59.4401 77.8982 59.2521 77.7102 59.0201 77.7102C58.7882 77.7102 58.6001 77.8982 58.6001 78.1302C58.6001 78.3622 58.7882 78.5502 59.0201 78.5502Z" fill="white"/>
<path d="M54.3702 81.3002C54.6022 81.3002 54.7902 81.1122 54.7902 80.8802C54.7902 80.6482 54.6022 80.4602 54.3702 80.4602C54.1382 80.4602 53.9502 80.6482 53.9502 80.8802C53.9502 81.1122 54.1382 81.3002 54.3702 81.3002Z" fill="white"/>
<path d="M49.72 84.0502C49.952 84.0502 50.14 83.8622 50.14 83.6302C50.14 83.3982 49.952 83.2102 49.72 83.2102C49.4881 83.2102 49.3 83.3982 49.3 83.6302C49.3 83.8622 49.4881 84.0502 49.72 84.0502Z" fill="white"/>
<path d="M63.67 81.2201C63.9019 81.2201 64.09 81.0321 64.09 80.8001C64.09 80.5682 63.9019 80.3801 63.67 80.3801C63.438 80.3801 63.25 80.5682 63.25 80.8001C63.25 81.0321 63.438 81.2201 63.67 81.2201Z" fill="white"/>
<path d="M59.0201 83.9701C59.2521 83.9701 59.4401 83.7821 59.4401 83.5501C59.4401 83.3182 59.2521 83.1301 59.0201 83.1301C58.7882 83.1301 58.6001 83.3182 58.6001 83.5501C58.6001 83.7821 58.7882 83.9701 59.0201 83.9701Z" fill="white"/>
<path d="M54.3702 86.7201C54.6022 86.7201 54.7902 86.5321 54.7902 86.3001C54.7902 86.0682 54.6022 85.8801 54.3702 85.8801C54.1382 85.8801 53.9502 86.0682 53.9502 86.3001C53.9502 86.5321 54.1382 86.7201 54.3702 86.7201Z" fill="white"/>
<path d="M63.67 86.64C63.9019 86.64 64.09 86.452 64.09 86.22C64.09 85.9881 63.9019 85.8 63.67 85.8C63.438 85.8 63.25 85.9881 63.25 86.22C63.25 86.452 63.438 86.64 63.67 86.64Z" fill="white"/>
<path d="M59.0201 89.39C59.2521 89.39 59.4401 89.202 59.4401 88.97C59.4401 88.7381 59.2521 88.55 59.0201 88.55C58.7882 88.55 58.6001 88.7381 58.6001 88.97C58.6001 89.202 58.7882 89.39 59.0201 89.39Z" fill="white"/>
<path d="M63.67 92.0602C63.9019 92.0602 64.09 91.8722 64.09 91.6402C64.09 91.4083 63.9019 91.2202 63.67 91.2202C63.438 91.2202 63.25 91.4083 63.25 91.6402C63.25 91.8722 63.438 92.0602 63.67 92.0602Z" fill="white"/>
<path d="M86.86 51.61C87.0919 51.61 87.28 51.422 87.28 51.19C87.28 50.9581 87.0919 50.77 86.86 50.77C86.628 50.77 86.4399 50.9581 86.4399 51.19C86.4399 51.422 86.628 51.61 86.86 51.61Z" fill="white"/>
<path d="M77.5501 51.5402C77.7821 51.5402 77.9701 51.3522 77.9701 51.1202C77.9701 50.8882 77.7821 50.7002 77.5501 50.7002C77.3182 50.7002 77.1301 50.8882 77.1301 51.1202C77.1301 51.3522 77.3182 51.5402 77.5501 51.5402Z" fill="white"/>
<path d="M82.2101 54.2802C82.442 54.2802 82.63 54.0921 82.63 53.8602C82.63 53.6282 82.442 53.4402 82.2101 53.4402C81.9781 53.4402 81.79 53.6282 81.79 53.8602C81.79 54.0921 81.9781 54.2802 82.2101 54.2802Z" fill="white"/>
<path d="M86.86 57.0302C87.0919 57.0302 87.28 56.8421 87.28 56.6102C87.28 56.3782 87.0919 56.1902 86.86 56.1902C86.628 56.1902 86.4399 56.3782 86.4399 56.6102C86.4399 56.8421 86.628 57.0302 86.86 57.0302Z" fill="white"/>
<path d="M63.6 49.1602C64.0805 49.1602 64.47 48.7706 64.47 48.2902C64.47 47.8097 64.0805 47.4202 63.6 47.4202C63.1195 47.4202 62.73 47.8097 62.73 48.2902C62.73 48.7706 63.1195 49.1602 63.6 49.1602Z" fill="white"/>
<path d="M68.2502 51.9102C68.7306 51.9102 69.1201 51.5206 69.1201 51.0402C69.1201 50.5597 68.7306 50.1702 68.2502 50.1702C67.7697 50.1702 67.3801 50.5597 67.3801 51.0402C67.3801 51.5206 67.7697 51.9102 68.2502 51.9102Z" fill="white"/>
<path d="M72.9003 54.6602C73.3808 54.6602 73.7703 54.2706 73.7703 53.7902C73.7703 53.3097 73.3808 52.9202 72.9003 52.9202C72.4198 52.9202 72.0303 53.3097 72.0303 53.7902C72.0303 54.2706 72.4198 54.6602 72.9003 54.6602Z" fill="white"/>
<path d="M77.5502 57.4102C78.0307 57.4102 78.4202 57.0206 78.4202 56.5402C78.4202 56.0597 78.0307 55.6702 77.5502 55.6702C77.0697 55.6702 76.6802 56.0597 76.6802 56.5402C76.6802 57.0206 77.0697 57.4102 77.5502 57.4102Z" fill="white"/>
<path d="M82.2101 60.1502C82.6906 60.1502 83.0801 59.7606 83.0801 59.2802C83.0801 58.7997 82.6906 58.4102 82.2101 58.4102C81.7296 58.4102 81.3401 58.7997 81.3401 59.2802C81.3401 59.7606 81.7296 60.1502 82.2101 60.1502Z" fill="white"/>
<path d="M86.86 62.4501C87.0919 62.4501 87.28 62.2621 87.28 62.0301C87.28 61.7981 87.0919 61.6101 86.86 61.6101C86.628 61.6101 86.4399 61.7981 86.4399 62.0301C86.4399 62.2621 86.628 62.4501 86.86 62.4501Z" fill="white"/>
<path d="M63.6001 55.4502C64.5611 55.4502 65.3401 54.6712 65.3401 53.7102C65.3401 52.7492 64.5611 51.9702 63.6001 51.9702C62.6391 51.9702 61.8601 52.7492 61.8601 53.7102C61.8601 54.6712 62.6391 55.4502 63.6001 55.4502Z" fill="white"/>
<path d="M68.2503 58.2002C69.2113 58.2002 69.9903 57.4212 69.9903 56.4602C69.9903 55.4992 69.2113 54.7202 68.2503 54.7202C67.2893 54.7202 66.5103 55.4992 66.5103 56.4602C66.5103 57.4212 67.2893 58.2002 68.2503 58.2002Z" fill="white"/>
<path d="M72.9002 60.9502C73.8612 60.9502 74.6402 60.1712 74.6402 59.2102C74.6402 58.2492 73.8612 57.4702 72.9002 57.4702C71.9392 57.4702 71.1602 58.2492 71.1602 59.2102C71.1602 60.1712 71.9392 60.9502 72.9002 60.9502Z" fill="white"/>
<path d="M77.55 63.6902C78.511 63.6902 79.29 62.9112 79.29 61.9502C79.29 60.9892 78.511 60.2102 77.55 60.2102C76.5891 60.2102 75.8101 60.9892 75.8101 61.9502C75.8101 62.9112 76.5891 63.6902 77.55 63.6902Z" fill="white"/>
<path d="M82.2101 65.5701C82.6906 65.5701 83.0801 65.1806 83.0801 64.7001C83.0801 64.2196 82.6906 63.8301 82.2101 63.8301C81.7296 63.8301 81.3401 64.2196 81.3401 64.7001C81.3401 65.1806 81.7296 65.5701 82.2101 65.5701Z" fill="white"/>
<path d="M86.86 67.87C87.0919 67.87 87.28 67.682 87.28 67.45C87.28 67.2181 87.0919 67.03 86.86 67.03C86.628 67.03 86.4399 67.2181 86.4399 67.45C86.4399 67.682 86.628 67.87 86.86 67.87Z" fill="white"/>
<path d="M63.6001 60.8701C64.5611 60.8701 65.3401 60.0911 65.3401 59.1301C65.3401 58.1692 64.5611 57.3901 63.6001 57.3901C62.6391 57.3901 61.8601 58.1692 61.8601 59.1301C61.8601 60.0911 62.6391 60.8701 63.6001 60.8701Z" fill="white"/>
<path d="M68.2503 63.6201C69.2113 63.6201 69.9903 62.8411 69.9903 61.8801C69.9903 60.9192 69.2113 60.1401 68.2503 60.1401C67.2893 60.1401 66.5103 60.9192 66.5103 61.8801C66.5103 62.8411 67.2893 63.6201 68.2503 63.6201Z" fill="white"/>
<path d="M72.9002 66.3601C73.8612 66.3601 74.6402 65.5811 74.6402 64.6201C74.6402 63.6592 73.8612 62.8801 72.9002 62.8801C71.9392 62.8801 71.1602 63.6592 71.1602 64.6201C71.1602 65.5811 71.9392 66.3601 72.9002 66.3601Z" fill="white"/>
<path d="M77.55 69.1101C78.511 69.1101 79.29 68.3311 79.29 67.3701C79.29 66.4092 78.511 65.6301 77.55 65.6301C76.5891 65.6301 75.8101 66.4092 75.8101 67.3701C75.8101 68.3311 76.5891 69.1101 77.55 69.1101Z" fill="white"/>
<path d="M82.2101 70.99C82.6906 70.99 83.0801 70.6005 83.0801 70.12C83.0801 69.6395 82.6906 69.25 82.2101 69.25C81.7296 69.25 81.3401 69.6395 81.3401 70.12C81.3401 70.6005 81.7296 70.99 82.2101 70.99Z" fill="white"/>
<path d="M86.86 73.2902C87.0919 73.2902 87.28 73.1022 87.28 72.8702C87.28 72.6382 87.0919 72.4502 86.86 72.4502C86.628 72.4502 86.4399 72.6382 86.4399 72.8702C86.4399 73.1022 86.628 73.2902 86.86 73.2902Z" fill="white"/>
<path d="M63.6 65.4202C64.0805 65.4202 64.47 65.0307 64.47 64.5502C64.47 64.0697 64.0805 63.6802 63.6 63.6802C63.1195 63.6802 62.73 64.0697 62.73 64.5502C62.73 65.0307 63.1195 65.4202 63.6 65.4202Z" fill="white"/>
<path d="M68.2502 68.1602C68.7306 68.1602 69.1201 67.7706 69.1201 67.2902C69.1201 66.8097 68.7306 66.4202 68.2502 66.4202C67.7697 66.4202 67.3801 66.8097 67.3801 67.2902C67.3801 67.7706 67.7697 68.1602 68.2502 68.1602Z" fill="white"/>
<path d="M72.9003 70.9102C73.3808 70.9102 73.7703 70.5206 73.7703 70.0402C73.7703 69.5597 73.3808 69.1702 72.9003 69.1702C72.4198 69.1702 72.0303 69.5597 72.0303 70.0402C72.0303 70.5206 72.4198 70.9102 72.9003 70.9102Z" fill="white"/>
<path d="M77.5502 73.6602C78.0307 73.6602 78.4202 73.2706 78.4202 72.7902C78.4202 72.3097 78.0307 71.9202 77.5502 71.9202C77.0697 71.9202 76.6802 72.3097 76.6802 72.7902C76.6802 73.2706 77.0697 73.6602 77.5502 73.6602Z" fill="white"/>
<path d="M82.2101 75.9601C82.442 75.9601 82.63 75.7721 82.63 75.5401C82.63 75.3082 82.442 75.1201 82.2101 75.1201C81.9781 75.1201 81.79 75.3082 81.79 75.5401C81.79 75.7721 81.9781 75.9601 82.2101 75.9601Z" fill="white"/>
<path d="M86.86 78.7101C87.0919 78.7101 87.28 78.5221 87.28 78.2901C87.28 78.0582 87.0919 77.8701 86.86 77.8701C86.628 77.8701 86.4399 78.0582 86.4399 78.2901C86.4399 78.5221 86.628 78.7101 86.86 78.7101Z" fill="white"/>
<path d="M63.6002 70.38C63.8321 70.38 64.0202 70.192 64.0202 69.96C64.0202 69.7281 63.8321 69.54 63.6002 69.54C63.3682 69.54 63.1802 69.7281 63.1802 69.96C63.1802 70.192 63.3682 70.38 63.6002 70.38Z" fill="white"/>
<path d="M68.2501 73.13C68.4821 73.13 68.6701 72.942 68.6701 72.71C68.6701 72.4781 68.4821 72.29 68.2501 72.29C68.0181 72.29 67.8301 72.4781 67.8301 72.71C67.8301 72.942 68.0181 73.13 68.2501 73.13Z" fill="white"/>
<path d="M72.9 75.88C73.132 75.88 73.32 75.692 73.32 75.46C73.32 75.2281 73.132 75.04 72.9 75.04C72.668 75.04 72.48 75.2281 72.48 75.46C72.48 75.692 72.668 75.88 72.9 75.88Z" fill="white"/>
<path d="M77.5501 78.63C77.7821 78.63 77.9701 78.442 77.9701 78.21C77.9701 77.9781 77.7821 77.79 77.5501 77.79C77.3182 77.79 77.1301 77.9781 77.1301 78.21C77.1301 78.442 77.3182 78.63 77.5501 78.63Z" fill="white"/>
<path d="M82.2101 81.38C82.442 81.38 82.63 81.192 82.63 80.96C82.63 80.7281 82.442 80.54 82.2101 80.54C81.9781 80.54 81.79 80.7281 81.79 80.96C81.79 81.192 81.9781 81.38 82.2101 81.38Z" fill="white"/>
<path d="M63.6002 75.8002C63.8321 75.8002 64.0202 75.6122 64.0202 75.3802C64.0202 75.1482 63.8321 74.9602 63.6002 74.9602C63.3682 74.9602 63.1802 75.1482 63.1802 75.3802C63.1802 75.6122 63.3682 75.8002 63.6002 75.8002Z" fill="white"/>
<path d="M68.2501 78.5502C68.4821 78.5502 68.6701 78.3622 68.6701 78.1302C68.6701 77.8982 68.4821 77.7102 68.2501 77.7102C68.0181 77.7102 67.8301 77.8982 67.8301 78.1302C67.8301 78.3622 68.0181 78.5502 68.2501 78.5502Z" fill="white"/>
<path d="M72.9 81.3002C73.132 81.3002 73.32 81.1122 73.32 80.8802C73.32 80.6482 73.132 80.4602 72.9 80.4602C72.668 80.4602 72.48 80.6482 72.48 80.8802C72.48 81.1122 72.668 81.3002 72.9 81.3002Z" fill="white"/>
<path d="M77.5501 84.0502C77.7821 84.0502 77.9701 83.8622 77.9701 83.6302C77.9701 83.3982 77.7821 83.2102 77.5501 83.2102C77.3182 83.2102 77.1301 83.3982 77.1301 83.6302C77.1301 83.8622 77.3182 84.0502 77.5501 84.0502Z" fill="white"/>
<path d="M68.2501 83.9701C68.4821 83.9701 68.6701 83.7821 68.6701 83.5501C68.6701 83.3182 68.4821 83.1301 68.2501 83.1301C68.0181 83.1301 67.8301 83.3182 67.8301 83.5501C67.8301 83.7821 68.0181 83.9701 68.2501 83.9701Z" fill="white"/>
<path d="M72.9 86.7201C73.132 86.7201 73.32 86.5321 73.32 86.3001C73.32 86.0682 73.132 85.8801 72.9 85.8801C72.668 85.8801 72.48 86.0682 72.48 86.3001C72.48 86.5321 72.668 86.7201 72.9 86.7201Z" fill="white"/>
<path d="M63.6002 86.64C63.8321 86.64 64.0202 86.452 64.0202 86.22C64.0202 85.9881 63.8321 85.8 63.6002 85.8C63.3682 85.8 63.1802 85.9881 63.1802 86.22C63.1802 86.452 63.3682 86.64 63.6002 86.64Z" fill="white"/>
<path d="M68.2501 89.39C68.4821 89.39 68.6701 89.202 68.6701 88.97C68.6701 88.7381 68.4821 88.55 68.2501 88.55C68.0181 88.55 67.8301 88.7381 67.8301 88.97C67.8301 89.202 68.0181 89.39 68.2501 89.39Z" fill="white"/>
<path d="M63.6002 92.0602C63.8321 92.0602 64.0202 91.8722 64.0202 91.6402C64.0202 91.4083 63.8321 91.2202 63.6002 91.2202C63.3682 91.2202 63.1802 91.4083 63.1802 91.6402C63.1802 91.8722 63.3682 92.0602 63.6002 92.0602Z" fill="white"/>
<path d="M63.1202 36.84C63.3521 36.84 63.5402 36.652 63.5402 36.42C63.5402 36.1881 63.3521 36 63.1202 36C62.8882 36 62.7002 36.1881 62.7002 36.42C62.7002 36.652 62.8882 36.84 63.1202 36.84Z" fill="white"/>
<path d="M58.4701 39.59C58.702 39.59 58.89 39.402 58.89 39.17C58.89 38.9381 58.702 38.75 58.4701 38.75C58.2381 38.75 58.05 38.9381 58.05 39.17C58.05 39.402 58.2381 39.59 58.4701 39.59Z" fill="white"/>
<path d="M53.8199 42.34C54.0519 42.34 54.2399 42.152 54.2399 41.92C54.2399 41.6881 54.0519 41.5 53.8199 41.5C53.588 41.5 53.3999 41.6881 53.3999 41.92C53.3999 42.152 53.588 42.34 53.8199 42.34Z" fill="white"/>
<path d="M49.17 45.09C49.4019 45.09 49.59 44.902 49.59 44.67C49.59 44.4381 49.4019 44.25 49.17 44.25C48.938 44.25 48.75 44.4381 48.75 44.67C48.75 44.902 48.938 45.09 49.17 45.09Z" fill="white"/>
<path d="M44.5201 47.84C44.752 47.84 44.9401 47.652 44.9401 47.42C44.9401 47.1881 44.752 47 44.5201 47C44.2881 47 44.1001 47.1881 44.1001 47.42C44.1001 47.652 44.2881 47.84 44.5201 47.84Z" fill="white"/>
<path d="M63.1202 42.2602C63.3521 42.2602 63.5402 42.0721 63.5402 41.8402C63.5402 41.6082 63.3521 41.4202 63.1202 41.4202C62.8882 41.4202 62.7002 41.6082 62.7002 41.8402C62.7002 42.0721 62.8882 42.2602 63.1202 42.2602Z" fill="white"/>
<path d="M58.4701 45.0102C58.702 45.0102 58.89 44.8221 58.89 44.5902C58.89 44.3582 58.702 44.1702 58.4701 44.1702C58.2381 44.1702 58.05 44.3582 58.05 44.5902C58.05 44.8221 58.2381 45.0102 58.4701 45.0102Z" fill="white"/>
<path d="M53.8199 47.7602C54.0519 47.7602 54.2399 47.5721 54.2399 47.3402C54.2399 47.1082 54.0519 46.9202 53.8199 46.9202C53.588 46.9202 53.3999 47.1082 53.3999 47.3402C53.3999 47.5721 53.588 47.7602 53.8199 47.7602Z" fill="white"/>
<path d="M63.0501 36.84C63.2821 36.84 63.4701 36.652 63.4701 36.42C63.4701 36.1881 63.2821 36 63.0501 36C62.8182 36 62.6301 36.1881 62.6301 36.42C62.6301 36.652 62.8182 36.84 63.0501 36.84Z" fill="white"/>
<path d="M67.7 39.59C67.932 39.59 68.12 39.402 68.12 39.17C68.12 38.9381 67.932 38.75 67.7 38.75C67.4681 38.75 67.28 38.9381 67.28 39.17C67.28 39.402 67.4681 39.59 67.7 39.59Z" fill="white"/>
<path d="M72.3502 42.34C72.5821 42.34 72.7702 42.152 72.7702 41.92C72.7702 41.6881 72.5821 41.5 72.3502 41.5C72.1182 41.5 71.9302 41.6881 71.9302 41.92C71.9302 42.152 72.1182 42.34 72.3502 42.34Z" fill="white"/>
<path d="M77.0001 45.09C77.2321 45.09 77.4201 44.902 77.4201 44.67C77.4201 44.4381 77.2321 44.25 77.0001 44.25C76.7681 44.25 76.5801 44.4381 76.5801 44.67C76.5801 44.902 76.7681 45.09 77.0001 45.09Z" fill="white"/>
<path d="M81.66 47.84C81.892 47.84 82.08 47.652 82.08 47.42C82.08 47.1881 81.892 47 81.66 47C81.428 47 81.24 47.1881 81.24 47.42C81.24 47.652 81.428 47.84 81.66 47.84Z" fill="white"/>
<path d="M63.0501 42.2602C63.2821 42.2602 63.4701 42.0721 63.4701 41.8402C63.4701 41.6082 63.2821 41.4202 63.0501 41.4202C62.8182 41.4202 62.6301 41.6082 62.6301 41.8402C62.6301 42.0721 62.8182 42.2602 63.0501 42.2602Z" fill="white"/>
<path d="M67.7 45.0102C67.932 45.0102 68.12 44.8221 68.12 44.5902C68.12 44.3582 67.932 44.1702 67.7 44.1702C67.4681 44.1702 67.28 44.3582 67.28 44.5902C67.28 44.8221 67.4681 45.0102 67.7 45.0102Z" fill="white"/>
<path d="M72.3502 47.7602C72.5821 47.7602 72.7702 47.5721 72.7702 47.3402C72.7702 47.1082 72.5821 46.9202 72.3502 46.9202C72.1182 46.9202 71.9302 47.1082 71.9302 47.3402C71.9302 47.5721 72.1182 47.7602 72.3502 47.7602Z" fill="white"/>
</svg>
